<svg width="4951" height="1185" viewBox="0 0 4951 1185" fill="none" xmlns="http://www.w3.org/2000/svg">
<path d="M3929.23 408.173L3857.57 336.342C3880.69 306.729 3893.24 270.16 3893.19 232.514C3893.19 198.988 3883.3 166.214 3864.78 138.337C3846.25 110.461 3819.92 88.7337 3789.11 75.9036C3758.31 63.0734 3724.41 59.7165 3691.7 66.2572C3659 72.798 3628.96 88.9426 3605.38 112.65C3581.8 136.357 3565.74 166.561 3559.24 199.444C3552.73 232.326 3556.07 266.41 3568.83 297.385C3581.59 328.359 3603.2 354.834 3630.93 373.46C3658.65 392.087 3691.25 402.028 3724.59 402.028C3762.04 402.075 3798.41 389.463 3827.86 366.219L3899.3 438.262C3901.26 440.248 3903.59 441.824 3906.16 442.9C3908.73 443.976 3911.48 444.53 3914.26 444.53C3917.05 444.53 3919.8 443.976 3922.37 442.9C3924.94 441.824 3927.27 440.248 3929.23 438.262C3931.2 436.292 3932.77 433.949 3933.84 431.367C3934.91 428.784 3935.46 426.015 3935.46 423.218C3935.46 420.42 3934.91 417.651 3933.84 415.069C3932.77 412.487 3931.2 410.143 3929.23 408.173ZM3598.15 232.514C3598.15 207.369 3605.56 182.789 3619.46 161.881C3633.35 140.974 3653.1 124.679 3676.21 115.056C3699.31 105.434 3724.74 102.916 3749.26 107.821C3773.79 112.727 3796.32 124.836 3814.01 142.616C3831.69 160.396 3843.73 183.049 3848.61 207.711C3853.49 232.373 3850.99 257.936 3841.42 281.167C3831.85 304.398 3815.64 324.254 3794.84 338.224C3774.05 352.194 3749.6 359.65 3724.59 359.65C3691.06 359.65 3658.9 346.255 3635.18 322.413C3611.47 298.57 3598.15 266.233 3598.15 232.514Z" fill="#FFBF00"/>
<path d="M347.766 479L356.566 387H736.566L727.766 479L588.566 467L585.366 731L594.966 939H482.966L492.566 744.6L489.366 467.8L347.766 479ZM774.428 552.6L871.228 531.8C876.028 572.867 879.228 611.8 880.828 648.6C929.361 573.4 974.961 535.8 1017.63 535.8L1008.83 660.6C977.895 660.6 953.361 663.533 935.228 669.4C917.628 674.733 899.495 685.667 880.828 702.2V731L889.628 919L782.428 939L792.028 744.6C789.895 673.133 784.028 609.133 774.428 552.6ZM1148.38 939C1116.92 939 1091.05 929.133 1070.78 909.4C1051.05 889.133 1041.18 862.2 1041.18 828.6C1041.18 794.467 1056.65 765.133 1087.58 740.6C1118.52 715.533 1156.12 703 1200.38 703H1254.78V689.4C1254.78 663.267 1249.45 645.4 1238.78 635.8C1228.12 626.2 1208.12 621.4 1178.78 621.4C1166.52 621.4 1151.85 624.067 1134.78 629.4C1118.25 634.2 1099.58 641.933 1078.78 652.6L1055.58 589.4C1078.52 573.4 1106.25 559 1138.78 546.2C1171.85 533.4 1199.05 527 1220.38 527C1304.12 527 1345.98 567.533 1345.98 648.6V805.4C1345.98 835.267 1355.32 868.6 1373.98 905.4L1289.18 941.4C1275.85 915.8 1265.98 892.867 1259.58 872.6C1230.25 916.867 1193.18 939 1148.38 939ZM1181.98 857.4C1203.32 857.4 1227.58 846.467 1254.78 824.6V771C1226.52 764.6 1203.58 761.4 1185.98 761.4C1152.38 761.4 1135.58 776.333 1135.58 806.2C1135.58 821.667 1139.85 834.2 1148.38 843.8C1156.92 852.867 1168.12 857.4 1181.98 857.4ZM1580.98 631C1557.52 631 1539.38 639.533 1526.58 656.6C1513.78 673.133 1507.38 698.733 1507.38 733.4C1507.38 768.067 1513.78 796.067 1526.58 817.4C1539.92 838.2 1559.12 848.6 1584.18 848.6C1596.98 848.6 1609.52 844.6 1621.78 836.6C1634.05 828.6 1643.38 820.6 1649.78 812.6L1658.58 799.8L1698.58 841.4C1696.98 844.067 1694.85 847.8 1692.18 852.6C1690.05 857.4 1684.18 865.933 1674.58 878.2C1665.52 890.467 1655.65 901.4 1644.98 911C1634.85 920.067 1621.52 928.6 1604.98 936.6C1588.45 944.067 1571.12 947.8 1552.98 947.8C1512.98 947.8 1480.45 931.533 1455.38 899C1430.32 866.467 1417.78 824.067 1417.78 771.8C1417.78 706.733 1436.72 649.667 1474.58 600.6C1512.45 551.533 1556.72 527 1607.38 527C1622.85 527 1638.32 529.4 1653.78 534.2C1669.25 538.467 1684.98 545.4 1700.98 555L1644.98 653.4C1625.78 638.467 1604.45 631 1580.98 631ZM2000.8 947L1850.4 725.4V731L1859.2 919L1751.2 939L1760.8 744.6L1751.2 339.8L1860.8 319.8L1850.4 706.2L2010.4 531L2085.6 582.2L1945.6 713.4L2092 886.2L2000.8 947ZM2701.37 385.4L2690.97 731L2699.77 921.4L2605.37 941.4L2366.97 555.8V731L2378.17 939H2278.17L2287.77 744.6L2278.17 389.4L2374.17 384.6L2611.77 775.8L2603.77 397.4L2701.37 385.4ZM2889.17 479L2897.97 387H3277.97L3269.17 479L3129.97 467L3126.77 731L3136.37 939H3024.37L3033.97 744.6L3030.77 467.8L2889.17 479ZM3315.83 552.6L3412.63 531.8C3417.43 572.867 3420.63 611.8 3422.23 648.6C3470.77 573.4 3516.37 535.8 3559.03 535.8L3550.23 660.6C3519.3 660.6 3494.77 663.533 3476.63 669.4C3459.03 674.733 3440.9 685.667 3422.23 702.2V731L3431.03 919L3323.83 939L3333.43 744.6C3331.3 673.133 3325.43 609.133 3315.83 552.6ZM3689.79 939C3658.32 939 3632.46 929.133 3612.19 909.4C3592.46 889.133 3582.59 862.2 3582.59 828.6C3582.59 794.467 3598.06 765.133 3628.99 740.6C3659.92 715.533 3697.52 703 3741.79 703H3796.19V689.4C3796.19 663.267 3790.86 645.4 3780.19 635.8C3769.52 626.2 3749.52 621.4 3720.19 621.4C3707.92 621.4 3693.26 624.067 3676.19 629.4C3659.66 634.2 3640.99 641.933 3620.19 652.6L3596.99 589.4C3619.92 573.4 3647.66 559 3680.19 546.2C3713.26 533.4 3740.46 527 3761.79 527C3845.52 527 3887.39 567.533 3887.39 648.6V805.4C3887.39 835.267 3896.72 868.6 3915.39 905.4L3830.59 941.4C3817.26 915.8 3807.39 892.867 3800.99 872.6C3771.66 916.867 3734.59 939 3689.79 939ZM3723.39 857.4C3744.72 857.4 3768.99 846.467 3796.19 824.6V771C3767.92 764.6 3744.99 761.4 3727.39 761.4C3693.79 761.4 3676.99 776.333 3676.99 806.2C3676.99 821.667 3681.26 834.2 3689.79 843.8C3698.32 852.867 3709.52 857.4 3723.39 857.4ZM4122.39 631C4098.92 631 4080.79 639.533 4067.99 656.6C4055.19 673.133 4048.79 698.733 4048.79 733.4C4048.79 768.067 4055.19 796.067 4067.99 817.4C4081.32 838.2 4100.52 848.6 4125.59 848.6C4138.39 848.6 4150.92 844.6 4163.19 836.6C4175.46 828.6 4184.79 820.6 4191.19 812.6L4199.99 799.8L4239.99 841.4C4238.39 844.067 4236.26 847.8 4233.59 852.6C4231.46 857.4 4225.59 865.933 4215.99 878.2C4206.92 890.467 4197.06 901.4 4186.39 911C4176.26 920.067 4162.92 928.6 4146.39 936.6C4129.86 944.067 4112.52 947.8 4094.39 947.8C4054.39 947.8 4021.86 931.533 3996.79 899C3971.72 866.467 3959.19 824.067 3959.19 771.8C3959.19 706.733 3978.12 649.667 4015.99 600.6C4053.86 551.533 4098.12 527 4148.79 527C4164.26 527 4179.72 529.4 4195.19 534.2C4210.66 538.467 4226.39 545.4 4242.39 555L4186.39 653.4C4167.19 638.467 4145.86 631 4122.39 631ZM4436.6 857.4C4452.07 857.4 4468.34 853.4 4485.4 845.4C4502.47 837.4 4515.8 829.4 4525.4 821.4L4539.8 809.4L4576.6 854.2C4571.27 863.267 4563 873.667 4551.8 885.4C4540.6 897.133 4529.14 907.267 4517.4 915.8C4506.2 923.8 4491 931.267 4471.8 938.2C4453.14 944.6 4433.67 947.8 4413.4 947.8C4370.2 947.8 4335 931.533 4307.8 899C4280.6 865.933 4267 823.533 4267 771.8C4267 706.733 4285.94 649.667 4323.8 600.6C4361.67 551.533 4405.94 527 4456.6 527C4495.54 527 4525.67 537.933 4547 559.8C4568.87 581.667 4579.8 612.333 4579.8 651.8C4579.8 675.267 4575.8 701.933 4567.8 731.8L4551.8 748.6L4351.8 767C4360.87 827.267 4389.14 857.4 4436.6 857.4ZM4436.6 609.4C4413.14 609.4 4393.4 619 4377.4 638.2C4361.4 656.867 4352.07 680.867 4349.4 710.2L4485.4 693.4C4487 681.133 4487.8 671 4487.8 663C4487.8 627.267 4470.74 609.4 4436.6 609.4Z" fill="#FFBF00"/>
</svg>
