<svg id="wave" style="transform:rotate(0deg); transition: 0.3s" viewBox="0 0 1440 360" version="1.1" xmlns="http://www.w3.org/2000/svg"><defs><linearGradient id="sw-gradient-0" x1="0" x2="0" y1="1" y2="0"><stop stop-color="rgba(243, 106, 62, 1)" offset="0%"></stop><stop stop-color="rgba(255, 179, 11, 1)" offset="100%"></stop></linearGradient></defs><path style="transform:translate(0, 0px); opacity:1" fill="url(#sw-gradient-0)" d="M0,216L48,198C96,180,192,144,288,132C384,120,480,132,576,156C672,180,768,216,864,222C960,228,1056,204,1152,216C1248,228,1344,276,1440,252C1536,228,1632,132,1728,96C1824,60,1920,84,2016,108C2112,132,2208,156,2304,180C2400,204,2496,228,2592,240C2688,252,2784,252,2880,246C2976,240,3072,228,3168,210C3264,192,3360,168,3456,150C3552,132,3648,120,3744,126C3840,132,3936,156,4032,162C4128,168,4224,156,4320,150C4416,144,4512,144,4608,162C4704,180,4800,216,4896,216C4992,216,5088,180,5184,138C5280,96,5376,48,5472,66C5568,84,5664,168,5760,204C5856,240,5952,228,6048,234C6144,240,6240,264,6336,264C6432,264,6528,240,6624,240C6720,240,6816,264,6864,276L6912,288L6912,360L6864,360C6816,360,6720,360,6624,360C6528,360,6432,360,6336,360C6240,360,6144,360,6048,360C5952,360,5856,360,5760,360C5664,360,5568,360,5472,360C5376,360,5280,360,5184,360C5088,360,4992,360,4896,360C4800,360,4704,360,4608,360C4512,360,4416,360,4320,360C4224,360,4128,360,4032,360C3936,360,3840,360,3744,360C3648,360,3552,360,3456,360C3360,360,3264,360,3168,360C3072,360,2976,360,2880,360C2784,360,2688,360,2592,360C2496,360,2400,360,2304,360C2208,360,2112,360,2016,360C1920,360,1824,360,1728,360C1632,360,1536,360,1440,360C1344,360,1248,360,1152,360C1056,360,960,360,864,360C768,360,672,360,576,360C480,360,384,360,288,360C192,360,96,360,48,360L0,360Z"></path><defs><linearGradient id="sw-gradient-1" x1="0" x2="0" y1="1" y2="0"><stop stop-color="rgba(243, 175.812, 62, 1)" offset="0%"></stop><stop stop-color="rgba(255, 179, 11, 1)" offset="100%"></stop></linearGradient></defs><path style="transform:translate(0, 50px); opacity:0.9" fill="url(#sw-gradient-1)" d="M0,144L48,162C96,180,192,216,288,198C384,180,480,108,576,102C672,96,768,156,864,162C960,168,1056,120,1152,90C1248,60,1344,48,1440,60C1536,72,1632,108,1728,144C1824,180,1920,216,2016,198C2112,180,2208,108,2304,66C2400,24,2496,12,2592,48C2688,84,2784,168,2880,192C2976,216,3072,180,3168,150C3264,120,3360,96,3456,114C3552,132,3648,192,3744,210C3840,228,3936,204,4032,204C4128,204,4224,228,4320,234C4416,240,4512,228,4608,210C4704,192,4800,168,4896,132C4992,96,5088,48,5184,48C5280,48,5376,96,5472,132C5568,168,5664,192,5760,204C5856,216,5952,216,6048,228C6144,240,6240,264,6336,282C6432,300,6528,312,6624,294C6720,276,6816,228,6864,204L6912,180L6912,360L6864,360C6816,360,6720,360,6624,360C6528,360,6432,360,6336,360C6240,360,6144,360,6048,360C5952,360,5856,360,5760,360C5664,360,5568,360,5472,360C5376,360,5280,360,5184,360C5088,360,4992,360,4896,360C4800,360,4704,360,4608,360C4512,360,4416,360,4320,360C4224,360,4128,360,4032,360C3936,360,3840,360,3744,360C3648,360,3552,360,3456,360C3360,360,3264,360,3168,360C3072,360,2976,360,2880,360C2784,360,2688,360,2592,360C2496,360,2400,360,2304,360C2208,360,2112,360,2016,360C1920,360,1824,360,1728,360C1632,360,1536,360,1440,360C1344,360,1248,360,1152,360C1056,360,960,360,864,360C768,360,672,360,576,360C480,360,384,360,288,360C192,360,96,360,48,360L0,360Z"></path><defs><linearGradient id="sw-gradient-2" x1="0" x2="0" y1="1" y2="0"><stop stop-color="rgba(248.49, 207.053, 94.784, 1)" offset="0%"></stop><stop stop-color="rgba(255, 179, 11, 1)" offset="100%"></stop></linearGradient></defs><path style="transform:translate(0, 100px); opacity:0.8" fill="url(#sw-gradient-2)" d="M0,0L48,18C96,36,192,72,288,102C384,132,480,156,576,180C672,204,768,228,864,198C960,168,1056,84,1152,96C1248,108,1344,216,1440,264C1536,312,1632,300,1728,300C1824,300,1920,312,2016,294C2112,276,2208,228,2304,204C2400,180,2496,180,2592,156C2688,132,2784,84,2880,102C2976,120,3072,204,3168,234C3264,264,3360,240,3456,222C3552,204,3648,192,3744,186C3840,180,3936,180,4032,168C4128,156,4224,132,4320,156C4416,180,4512,252,4608,282C4704,312,4800,300,4896,294C4992,288,5088,288,5184,282C5280,276,5376,264,5472,264C5568,264,5664,276,5760,282C5856,288,5952,288,6048,264C6144,240,6240,192,6336,186C6432,180,6528,216,6624,246C6720,276,6816,300,6864,312L6912,324L6912,360L6864,360C6816,360,6720,360,6624,360C6528,360,6432,360,6336,360C6240,360,6144,360,6048,360C5952,360,5856,360,5760,360C5664,360,5568,360,5472,360C5376,360,5280,360,5184,360C5088,360,4992,360,4896,360C4800,360,4704,360,4608,360C4512,360,4416,360,4320,360C4224,360,4128,360,4032,360C3936,360,3840,360,3744,360C3648,360,3552,360,3456,360C3360,360,3264,360,3168,360C3072,360,2976,360,2880,360C2784,360,2688,360,2592,360C2496,360,2400,360,2304,360C2208,360,2112,360,2016,360C1920,360,1824,360,1728,360C1632,360,1536,360,1440,360C1344,360,1248,360,1152,360C1056,360,960,360,864,360C768,360,672,360,576,360C480,360,384,360,288,360C192,360,96,360,48,360L0,360Z"></path></svg>